<?xml version="1.0" encoding="UTF-8" standalone="no"?>
<svg
   inkscape:export-ydpi="90"
   inkscape:export-xdpi="90"
   inkscape:export-filename="/home/diau/svn/playground-plasma/desktoptheme/air/widgets/background.png"
   version="1.0"
   inkscape:output_extension="org.inkscape.output.svg.inkscape"
   sodipodi:docname="decoration.svg"
   inkscape:version="1.1.2 (0a00cf5339, 2022-02-04, custom)"
   sodipodi:version="0.32"
   id="svg3642"
   height="310"
   width="355"
   xmlns:inkscape="http://www.inkscape.org/namespaces/inkscape"
   xmlns:sodipodi="http://sodipodi.sourceforge.net/DTD/sodipodi-0.dtd"
   xmlns:xlink="http://www.w3.org/1999/xlink"
   xmlns="http://www.w3.org/2000/svg"
   xmlns:svg="http://www.w3.org/2000/svg">
  <sodipodi:namedview
     inkscape:document-rotation="0"
     inkscape:snap-nodes="true"
     inkscape:object-paths="true"
     inkscape:snap-intersection-paths="true"
     inkscape:snap-smooth-nodes="true"
     inkscape:snap-midpoints="true"
     inkscape:snap-bbox-edge-midpoints="true"
     inkscape:bbox-paths="true"
     inkscape:bbox-nodes="true"
     inkscape:snap-bbox="true"
     inkscape:snap-global="true"
     inkscape:window-maximized="1"
     gridtolerance="13"
     objecttolerance="9"
     inkscape:guide-bbox="true"
     showguides="true"
     height="48px"
     width="48px"
     inkscape:window-y="0"
     inkscape:window-x="0"
     inkscape:window-height="999"
     inkscape:window-width="1920"
     inkscape:document-units="px"
     inkscape:grid-bbox="true"
     showgrid="false"
     inkscape:current-layer="layer1"
     inkscape:cy="38.183765"
     inkscape:cx="518.30926"
     inkscape:zoom="0.7071068"
     inkscape:pageshadow="2"
     inkscape:pageopacity="1"
     borderopacity="1.0"
     bordercolor="#666666"
     pagecolor="#cccccc"
     id="base"
     inkscape:pagecheckerboard="0">
    <inkscape:grid
       empopacity="0.25098039"
       empcolor="#6decff"
       opacity="0.1254902"
       color="#8f8fff"
       snapvisiblegridlinesonly="true"
       empspacing="5"
       visible="true"
       enabled="true"
       id="grid2555"
       type="xygrid" />
  </sodipodi:namedview>
  <defs
     id="defs3644">
    <linearGradient
       id="shadow_active">
      <stop
         style="stop-color:#000000;stop-opacity:0.92168677;"
         offset="0"
         id="stop7028" />
      <stop
         style="stop-color:#000000;stop-opacity:0.74096388;"
         offset="0.125"
         id="stop7026" />
      <stop
         style="stop-color:#000000;stop-opacity:0.60240966;"
         offset="0.25"
         id="stop6834" />
      <stop
         style="stop-color:#000000;stop-opacity:0.33132529;"
         offset="0.5"
         id="stop6832" />
      <stop
         id="stop6836"
         offset="0.75"
         style="stop-color:#000000;stop-opacity:0.10843374;" />
      <stop
         style="stop-color:#000000;stop-opacity:0.03921569;"
         offset="0.875"
         id="stop6894" />
      <stop
         style="stop-color:#000000;stop-opacity:0;"
         offset="1"
         id="stop6721" />
    </linearGradient>
    <linearGradient
       y2="221.16278"
       x2="398"
       y1="138.13953"
       x1="398"
       gradientTransform="matrix(1,0,0,1.0117647,0,137.2353)"
       gradientUnits="userSpaceOnUse"
       id="linearGradient5688"
       xlink:href="#shadow_active"
       inkscape:collect="always" />
    <linearGradient
       y2="14.583314"
       x2="396"
       y1="64.166748"
       x1="396"
       gradientTransform="matrix(1,0,0,1.0285694,-215,50.00005)"
       gradientUnits="userSpaceOnUse"
       id="linearGradient6612"
       xlink:href="#shadow_active"
       inkscape:collect="always" />
    <linearGradient
       y2="171.74419"
       x2="398"
       y1="138.13954"
       x1="398"
       gradientTransform="matrix(1,0,0,1.0117647,0,137.15731)"
       gradientUnits="userSpaceOnUse"
       id="linearGradient5688-2"
       xlink:href="#shadow_inactive"
       inkscape:collect="always" />
    <linearGradient
       id="shadow_inactive">
      <stop
         id="stop6719-25"
         offset="0"
         style="stop-color:#000000;stop-opacity:1;" />
      <stop
         style="stop-color:#000000;stop-opacity:0.63855422;"
         offset="0.25"
         id="stop6834-1" />
      <stop
         style="stop-color:#000000;stop-opacity:0.33734939;"
         offset="0.5"
         id="stop6832-0" />
      <stop
         id="stop6836-0"
         offset="0.75"
         style="stop-color:#000000;stop-opacity:0.10843374;" />
      <stop
         style="stop-color:#000000;stop-opacity:0.03921569;"
         offset="0.875"
         id="stop6894-7" />
      <stop
         style="stop-color:#000000;stop-opacity:0;"
         offset="1"
         id="stop6721-4" />
    </linearGradient>
    <linearGradient
       y2="30"
       x2="396"
       y1="66"
       x1="396"
       gradientTransform="translate(200,5)"
       gradientUnits="userSpaceOnUse"
       id="linearGradient6612-5"
       xlink:href="#shadow_inactive"
       inkscape:collect="always" />
    <linearGradient
       y2="99"
       x2="279.41449"
       y1="99"
       x1="348.49344"
       gradientTransform="matrix(1.0133333,0,0,1,-3.2650058,140)"
       gradientUnits="userSpaceOnUse"
       id="linearGradient1126"
       xlink:href="#shadow_active"
       inkscape:collect="always" />
    <radialGradient
       r="17.5"
       fy="80.416679"
       fx="296.47726"
       cy="80.416679"
       cx="296.47726"
       gradientTransform="matrix(9.4919759e-7,-2.9142759,4.0000007,1.1504403e-6,-211.66707,980.01628)"
       gradientUnits="userSpaceOnUse"
       id="radialGradient1306"
       xlink:href="#shadow_active"
       inkscape:collect="always" />
    <linearGradient
       y2="99.01548"
       x2="304.08554"
       y1="99.01548"
       x1="348.49344"
       gradientTransform="matrix(1.0133333,0,0,1,-3.2650058,140)"
       gradientUnits="userSpaceOnUse"
       id="linearGradient1389"
       xlink:href="#shadow_inactive"
       inkscape:collect="always" />
    <radialGradient
       r="17.5"
       fy="178.72313"
       fx="48.27084"
       cy="178.72313"
       cx="48.27084"
       gradientTransform="matrix(-4.0000019,3.2964352e-6,1.0208917e-6,-4.799999,688.08329,1147.8707)"
       gradientUnits="userSpaceOnUse"
       id="radialGradient965"
       xlink:href="#shadow_active"
       inkscape:collect="always" />
    <radialGradient
       r="17.5"
       fy="181.17691"
       fx="48.270844"
       cy="181.17691"
       cx="48.270844"
       gradientTransform="matrix(-2.5714291,8.7200345e-7,-2.0148289e-7,-1.9428564,594.12508,638.00067)"
       gradientUnits="userSpaceOnUse"
       id="radialGradient967"
       xlink:href="#shadow_inactive"
       inkscape:collect="always" />
    <radialGradient
       r="17.5"
       fy="80.416672"
       fx="296.45123"
       cy="80.416672"
       cx="296.45123"
       gradientTransform="matrix(-3.7607938e-7,-2.0571166,2.5714318,-5.1233137e-7,263.21413,725.83432)"
       gradientUnits="userSpaceOnUse"
       id="radialGradient969"
       xlink:href="#shadow_inactive"
       inkscape:collect="always" />
    <linearGradient
       y2="99"
       x2="279.41449"
       y1="99"
       x1="348.49344"
       gradientTransform="matrix(1.0133333,0,0,1,-3.2650058,140)"
       gradientUnits="userSpaceOnUse"
       id="linearGradient968"
       xlink:href="#shadow_active"
       inkscape:collect="always" />
    <linearGradient
       y2="99.01548"
       x2="304.08554"
       y1="99.01548"
       x1="348.49344"
       gradientTransform="matrix(1.0133333,0,0,1,-3.2650058,140)"
       gradientUnits="userSpaceOnUse"
       id="linearGradient1012"
       xlink:href="#shadow_inactive"
       inkscape:collect="always" />
  </defs>
  <g
     transform="translate(0,-90)"
     id="layer1">
    <g
       transform="translate(140,-31.063)"
       id="decoration-inactive-topleft">
      <path
         transform="translate(-140,115.063)"
         d="m 365,50 v 66 h 76 V 98 c 0,-6.648 5.352,-12 12,-12 h 17 V 50 Z"
         style="opacity:0.5;fill:url(#radialGradient969);fill-opacity:1;stroke:none"
         id="rect6520-3-2-6" />
      <path
         d="m 313,201.063 c -6.648,0 -12,5.352 -12,12 v 17.93555 0.0644 h 29 v -30 z"
         style="fill:#f5f5f5;fill-opacity:1;stroke:none;stroke-width:1"
         id="rect5073-4-9-6" />
      <path
         transform="translate(-140,121.063)"
         d="M 453 79 C 445.798 79 440 84.798 440 92 L 440 110 L 441 110 L 441 92 C 441 85.352 446.352 80 453 80 L 470 80 L 470 79 L 453 79 z "
         style="opacity:0.08;fill:#000000;fill-opacity:1;stroke:none"
         id="path202" />
    </g>
    <g
       id="decoration-right"
       transform="matrix(-1,0,0,1,604.875,3)">
      <path
         style="opacity:0.5;fill:url(#linearGradient968);fill-opacity:1;stroke:none;stroke-width:1.00664"
         d="m 244.875,197 v 86 h 76 v -86 z"
         id="path960" />
      <path
         transform="matrix(-1,0,0,1,604.875,81)"
         d="m 284,116 v 86 h 1 v -86 z"
         style="opacity:0.15;fill:#000000;fill-opacity:1;stroke:none"
         id="path962" />
      <path
         style="opacity:1;fill:#ffffff;fill-opacity:1;stroke:none"
         d="m 576,121 v 86 h 29 v -86 z"
         id="path964"
         transform="translate(-255.125,76)" />
    </g>
    <g
       transform="translate(-215,9)"
       id="decoration-bottom">
      <path
         id="path6217-8"
         d="m 325,289 v 86 h 145 v -86 z"
         style="opacity:0.5;fill:url(#linearGradient5688);fill-opacity:1;stroke:none;stroke-width:1.0058651" />
      <path
         style="opacity:0.15;fill:#000000;fill-opacity:1;stroke:none;stroke-width:0.413845"
         d="M 470,289 H 325 v 1 h 145 z"
         id="path6214-7" />
      <path
         style="opacity:0.75;fill:#f5f5f5;fill-opacity:1;stroke:none;stroke-width:1.41421"
         d="M 470,277 H 325 v 12 h 145 z"
         id="path6211-7" />
    </g>
    <path
       id="decoration-center"
       d="m 110,200 v 86 h 145 v -86 z"
       style="opacity:1;fill:#ffffff;fill-opacity:1;stroke:none" />
    <g
       transform="translate(-215,-5.99995)"
       id="decoration-top">
      <path
         transform="translate(215,89.99995)"
         d="M 110,50 V 86 H 255 V 50 Z"
         style="opacity:0.5;fill:url(#linearGradient6612);fill-opacity:1;stroke:none;stroke-width:1.01418"
         id="path6055-5" />
      <path
         transform="translate(215,89.99995)"
         d="m 110,85 v 1 h 145 v -1 z"
         style="opacity:0.15;fill:#000000;fill-opacity:1;stroke:none"
         id="path6098-4" />
      <path
         id="path6092-3"
         d="m 325,175.99994 v 30.00002 h 145 v -30.00002 z"
         style="opacity:1;fill:#ffffff;fill-opacity:1;stroke:none;stroke-width:1" />
    </g>
    <g
       transform="translate(-239.875,3)"
       id="decoration-left">
      <path
         id="path6345-1"
         d="m 244.875,197 v 86 h 76 v -86 z"
         style="opacity:0.5;fill:url(#linearGradient1126);fill-opacity:1;stroke:none;stroke-width:1.00664" />
      <path
         transform="translate(239.875,81)"
         d="m 80,116 v 86 h 1 v -86 z"
         style="opacity:0.15;fill:#000000;fill-opacity:1;stroke:none"
         id="path6342-6" />
      <path
         transform="translate(-255.125,76)"
         id="path6339-9"
         d="m 576,121 v 86 h 29 v -86 z"
         style="opacity:1;fill:#ffffff;fill-opacity:1;stroke:none" />
    </g>
    <g
       transform="translate(145,9.07798)"
       id="decoration-inactive-bottom">
      <path
         id="path6217-8-2"
         d="m 325,288.92202 v 86 h 145 v -86 z"
         style="opacity:0.5;fill:url(#linearGradient5688-2);fill-opacity:1;stroke:none;stroke-width:1.0058651" />
      <path
         style="opacity:0.08;fill:#000000;fill-opacity:1;stroke:none;stroke-width:0.39242497"
         d="M 470,288.92202 H 325 v 1 h 145 z"
         id="path6214-7-4" />
      <path
         style="opacity:0.75;fill:#f5f5f5;fill-opacity:1;stroke:none;stroke-width:1.41421"
         d="M 470,276.92202 H 325 v 12 h 145 z"
         id="path6211-7-5" />
    </g>
    <path
       id="decoration-inactive-center"
       d="m 470,200 v 86 h 145 v -86 z"
       style="opacity:1;fill:#f5f5f5;fill-opacity:1;stroke:none" />
    <g
       transform="translate(145,-6)"
       id="decoration-inactive-top">
      <path
         id="path6055-5-5"
         transform="translate(-200,135)"
         d="M 525,5 V 41 H 670 V 5 Z"
         style="opacity:0.5;fill:url(#linearGradient6612-5);fill-opacity:1;stroke:none" />
      <path
         id="path6098-4-8"
         style="opacity:0.08;fill:#000000;fill-opacity:1;stroke:none"
         d="m 470,85 v 1 h 145 v -1 z"
         transform="translate(-145,90)" />
      <path
         id="path6092-3-3"
         d="m 325,176 v 30 h 145 v -30 z"
         style="opacity:1;fill:#f5f5f5;fill-opacity:1;stroke:none;stroke-width:1" />
    </g>
    <g
       transform="translate(120.125,2.98452)"
       id="decoration-inactive-left">
      <path
         id="path6345-1-1"
         d="m 244.875,197.01548 v 86 l 76,-0.0155 v -85.98452 z"
         style="opacity:0.5;fill:url(#linearGradient1389);fill-opacity:1;stroke:none;stroke-width:1.00664" />
      <path
         style="opacity:0.08;fill:#000000;fill-opacity:1;stroke:none;stroke-width:0.447214"
         d="m 319.875,197.01548 v 86 h 1 v -86 z"
         id="path6342-6-6" />
      <path
         id="path6339-9-9"
         d="m 320.875,197.01548 v 86 h 29 v -86 z"
         style="opacity:1;fill:#f5f5f5;fill-opacity:1;stroke:none" />
    </g>
    <g
       id="decoration-bottomleft"
       transform="translate(-385,-4.000015)">
      <path
         transform="translate(385,94.000015)"
         d="M 81 196 C 81 202.648 86.352 208 93 208 L 110 208 L 110 196 L 81 196 z "
         style="opacity:0.75;fill:#f5f5f5;fill-opacity:1;stroke:none"
         id="rect7023-1" />
      <path
         d="m 390,290.00001 v 98 h 105 v -86 h -17 c -6.648,0 -12,-5.352 -12,-12 z"
         style="opacity:0.5;fill:url(#radialGradient965);fill-opacity:1;stroke:none"
         id="rect5099-9-5" />
      <path
         d="m 465,290.00001 c 0,7.202 5.798,13 13,13 h 17 v -1 h -17 c -6.648,0 -12,-5.352 -12,-12 z"
         style="opacity:0.15;fill:#000000;fill-opacity:1;stroke:none"
         id="path168" />
    </g>
    <g
       id="decoration-inactive-bottomleft">
      <path
         transform="translate(0,90)"
         d="m 441,196 c 0,6.648 5.352,12 12,12 h 14 3 v -12 z"
         style="opacity:0.75;fill:#f5f5f5;fill-opacity:1;stroke:none;stroke-width:1.41421"
         id="path4207" />
      <path
         d="m 365,286 v 98 h 105 v -86 h -3 -14 c -6.648,0 -12,-5.35201 -12,-12 z"
         style="opacity:0.5;fill:url(#radialGradient967);fill-opacity:1;stroke:none"
         id="rect5099-9-6" />
      <path
         d="m 440,286 c 0,7.20199 5.798,13 13,13 h 14 l 3,-2e-5 V 298 h -3 -14 c -6.648,0 -12,-5.35201 -12,-12 z"
         style="opacity:0.08;fill:#000000;fill-opacity:1;stroke:none"
         id="path188" />
    </g>
    <rect
       y="134.00005"
       x="174"
       height="35.999897"
       width="4"
       id="shadow-hint-top-margin"
       style="opacity:1;fill:#ff00ff;fill-opacity:1;stroke:none;stroke-width:0.447214" />
    <rect
       y="298.00003"
       x="175"
       height="85.999969"
       width="4"
       id="shadow-hint-bottom-margin"
       style="opacity:1;fill:#ff00ff;fill-opacity:1;stroke:none;stroke-width:1.18321598" />
    <rect
       y="230"
       x="284"
       height="4"
       width="76"
       id="shadow-hint-right-margin"
       style="opacity:1;fill:#ff00ff;fill-opacity:1;stroke:none;stroke-width:0.707107" />
    <rect
       y="224"
       x="5"
       height="4"
       width="76"
       id="shadow-hint-left-margin"
       style="opacity:1;fill:#ff00ff;fill-opacity:1;stroke:none;stroke-width:0.707107" />
    <rect
       style="fill:#00ff29;fill-opacity:1;stroke:none;stroke-width:1.08465"
       y="134"
       x="186"
       height="66"
       width="4"
       id="hint-top-margin" />
    <rect
       style="fill:#00ff29;fill-opacity:1;stroke:none;stroke-width:1.11946"
       y="286"
       x="187"
       height="97.999992"
       width="4"
       id="hint-bottom-margin" />
    <rect
       style="fill:#00ff29;fill-opacity:1;stroke:none;stroke-width:1.08465"
       transform="rotate(90)"
       y="-360"
       x="219"
       height="105"
       width="4"
       id="hint-right-margin" />
    <rect
       style="fill:#00ff29;fill-opacity:1;stroke:none;stroke-width:1.0853"
       transform="rotate(90)"
       y="-110"
       x="216"
       height="105"
       width="4"
       id="hint-left-margin" />
    <g
       id="decoration-topleft"
       transform="matrix(-1,0,0,1,535,-31.0625)">
      <path
         transform="matrix(-1,0,0,1,535,115.0625)"
         d="m 5,50 v 66 H 81 V 98 c 0,-6.648 5.352,-12 12,-12 h 17 V 50 Z"
         style="opacity:0.5;fill:url(#radialGradient1306);fill-opacity:1;stroke:none"
         id="path1019" />
      <path
         d="m 442,201.0625 c 6.648,0 12,5.352 12,12 v 18 h -29 v -30 z"
         style="fill:#ffffff;fill-opacity:1;stroke:none;stroke-width:1"
         id="path1023" />
      <path
         transform="matrix(-1,0,0,1,535,115.0625)"
         d="m 93,85 c -7.202,0 -13,5.798 -13,13 v 18 h 1 V 98 c 0,-6.648 5.352,-12 12,-12 h 17 v -1 z"
         style="opacity:0.15;fill:#000000;fill-opacity:1;stroke:none"
         id="path187" />
    </g>
    <g
       id="decoration-inactive-right"
       transform="matrix(-1,0,0,1,964.875,2.98452)">
      <path
         style="opacity:0.5;fill:url(#linearGradient1012);fill-opacity:1;stroke:none;stroke-width:1.00664"
         d="m 244.875,197.01548 v 86 l 76,-0.0155 v -85.98452 z"
         id="path1004" />
      <path
         id="path1006"
         d="m 319.875,197.01548 v 86 h 1 v -86 z"
         style="opacity:0.08;fill:#000000;fill-opacity:1;stroke:none;stroke-width:0.447214" />
      <path
         style="opacity:1;fill:#f5f5f5;fill-opacity:1;stroke:none"
         d="m 320.875,197.01548 v 86 h 29 v -86 z"
         id="path1008" />
    </g>
    <use
       height="100%"
       width="100%"
       transform="matrix(-1,0,0,1,365,0)"
       id="decoration-topright"
       xlink:href="#decoration-topleft"
       y="0"
       x="0" />
    <use
       height="100%"
       width="100%"
       transform="matrix(-1,0,0,1,1085,0)"
       id="decoration-inactive-topright"
       xlink:href="#decoration-inactive-topleft"
       y="0"
       x="0" />
    <use
       height="100%"
       width="100%"
       transform="matrix(-1,0,0,1,365,0)"
       id="decoration-bottomright"
       xlink:href="#decoration-bottomleft"
       y="0"
       x="0" />
    <use
       height="100%"
       width="100%"
       transform="matrix(-1,0,0,1,1085,0)"
       id="decoration-inactive-bottomright"
       xlink:href="#decoration-inactive-bottomleft"
       y="0"
       x="0" />
    <g
       transform="translate(534.23912,-31.063)"
       id="mask-topleft">
      <path
         id="path957"
         d="m 365,50 v 66 h 76 V 98 c 0,-6.648 5.352,-12 12,-12 h 17 V 50 Z"
         transform="translate(-140,115.063)"
         style="fill:none" />
      <path
         d="m 313,201.063 c -6.648,0 -12,5.352 -12,12 v 17.93555 0.0644 h 29 v -30 z"
         id="path1101" />
    </g>
    <g
       id="mask-bottom"
       transform="translate(539.23912,9.07798)">
      <path
         d="m 325,288.92202 v 86 h 145 v -86 z"
         id="path975"
         style="fill:none" />
      <path
         id="path979"
         d="M 470,276.92202 H 325 v 12 h 145 z" />
    </g>
    <g
       id="mask-center">
      <path
         d="m 864.23912,200 v 86 h 144.99998 v -86 z"
         id="path983" />
    </g>
    <g
       id="mask-top"
       transform="translate(539.23912,-6)">
      <path
         d="M 525,5 V 41 H 670 V 5 Z"
         transform="translate(-200,135)"
         id="path985"
         style="fill:none" />
      <path
         d="m 325,176 v 30 h 145 v -30 z"
         id="path989" />
    </g>
    <g
       id="mask-left"
       transform="translate(514.36412,2.98452)">
      <path
         d="m 244.875,197.01548 v 86 l 76,-0.0155 v -85.98452 z"
         id="path995"
         style="fill:none" />
      <path
         d="m 320.875,197.01548 v 86 h 29 v -86 z"
         id="path999" />
    </g>
    <g
       id="mask-bottomleft"
       transform="translate(394.23912)">
      <path
         id="path1003"
         d="m 441,196 c 0,6.648 5.352,12 12,12 h 14 3 v -12 z"
         transform="translate(0,90)" />
      <path
         id="path1005"
         d="m 365,286 v 98 h 105 v -86 h -3 -14 c -6.648,0 -12,-5.35201 -12,-12 z"
         style="fill:none" />
    </g>
    <use
       x="0"
       y="0"
       xlink:href="#mask-topleft"
       id="mask-topright"
       transform="matrix(-1,0,0,1,1873.4782,0)"
       width="100%"
       height="100%" />
    <use
       x="0"
       y="0"
       xlink:href="#mask-bottomleft"
       id="mask-bottomright"
       transform="matrix(-1,0,0,1,1873.4782,0)"
       width="100%"
       height="100%" />
    <use
       x="0"
       y="0"
       xlink:href="#mask-left"
       id="mask-right"
       transform="matrix(-1,0,0,1,1873.4782,0)"
       width="100%"
       height="100%" />
  </g>
</svg>
