<?xml version="1.0" encoding="UTF-8" standalone="no"?>
<svg
   width="900"
   height="400"
   id="svg3642"
   sodipodi:version="0.32"
   inkscape:version="1.1.1 (3bf5ae0d25, 2021-09-20, custom)"
   sodipodi:docname="decoration.svg"
   inkscape:output_extension="org.inkscape.output.svg.inkscape"
   version="1.0"
   inkscape:export-filename="/home/diau/svn/playground-plasma/desktoptheme/air/widgets/background.png"
   inkscape:export-xdpi="90"
   inkscape:export-ydpi="90"
   xmlns:inkscape="http://www.inkscape.org/namespaces/inkscape"
   xmlns:sodipodi="http://sodipodi.sourceforge.net/DTD/sodipodi-0.dtd"
   xmlns:xlink="http://www.w3.org/1999/xlink"
   xmlns="http://www.w3.org/2000/svg"
   xmlns:svg="http://www.w3.org/2000/svg"
   xmlns:rdf="http://www.w3.org/1999/02/22-rdf-syntax-ns#"
   xmlns:cc="http://creativecommons.org/ns#"
   xmlns:dc="http://purl.org/dc/elements/1.1/">
  <sodipodi:namedview
     id="base"
     pagecolor="#585858"
     bordercolor="#666666"
     borderopacity="1.0"
     inkscape:pageopacity="1"
     inkscape:pageshadow="2"
     inkscape:zoom="0.3535534"
     inkscape:cx="373.35237"
     inkscape:cy="181.01933"
     inkscape:current-layer="layer1"
     showgrid="false"
     inkscape:grid-bbox="true"
     inkscape:document-units="px"
     inkscape:window-width="1368"
     inkscape:window-height="706"
     inkscape:window-x="0"
     inkscape:window-y="0"
     width="48px"
     height="48px"
     showguides="true"
     inkscape:guide-bbox="true"
     objecttolerance="9"
     gridtolerance="13"
     inkscape:window-maximized="1"
     inkscape:snap-global="true"
     inkscape:snap-bbox="true"
     inkscape:bbox-nodes="true"
     inkscape:bbox-paths="true"
     inkscape:snap-bbox-edge-midpoints="true"
     inkscape:snap-midpoints="true"
     inkscape:snap-smooth-nodes="true"
     inkscape:snap-intersection-paths="true"
     inkscape:object-paths="true"
     inkscape:snap-nodes="true"
     inkscape:document-rotation="0"
     inkscape:pagecheckerboard="0">
    <inkscape:grid
       type="xygrid"
       id="grid2555"
       enabled="true"
       visible="true"
       empspacing="5"
       snapvisiblegridlinesonly="true"
       color="#8f8fff"
       opacity="0.1254902"
       empcolor="#6decff"
       empopacity="0.25098039" />
  </sodipodi:namedview>
  <defs
     id="defs3644">
    <linearGradient
       id="shadow_active">
      <stop
         id="stop7028"
         offset="0"
         style="stop-color:#000000;stop-opacity:0.92168677;" />
      <stop
         id="stop7026"
         offset="0.125"
         style="stop-color:#000000;stop-opacity:0.74096388;" />
      <stop
         id="stop6834"
         offset="0.25"
         style="stop-color:#000000;stop-opacity:0.60240966;" />
      <stop
         id="stop6832"
         offset="0.5"
         style="stop-color:#000000;stop-opacity:0.33132529;" />
      <stop
         style="stop-color:#000000;stop-opacity:0.10843374;"
         offset="0.75"
         id="stop6836" />
      <stop
         id="stop6894"
         offset="0.875"
         style="stop-color:#000000;stop-opacity:0.03921569;" />
      <stop
         id="stop6721"
         offset="1"
         style="stop-color:#000000;stop-opacity:0;" />
    </linearGradient>
    <linearGradient
       inkscape:collect="always"
       xlink:href="#shadow_active"
       id="linearGradient5688"
       gradientUnits="userSpaceOnUse"
       gradientTransform="matrix(1,0,0,1.0117647,0,137.2353)"
       x1="398"
       y1="138.13953"
       x2="398"
       y2="221.16278" />
    <linearGradient
       inkscape:collect="always"
       xlink:href="#shadow_active"
       id="linearGradient6612"
       gradientUnits="userSpaceOnUse"
       gradientTransform="matrix(1,0,0,1.0285694,-215,50.00005)"
       x1="396"
       y1="64.166748"
       x2="396"
       y2="14.583314" />
    <linearGradient
       inkscape:collect="always"
       xlink:href="#shadow_inactive"
       id="linearGradient5688-2"
       gradientUnits="userSpaceOnUse"
       gradientTransform="matrix(1,0,0,1.0117647,0,137.15731)"
       x1="398"
       y1="138.13954"
       x2="398"
       y2="171.74419" />
    <linearGradient
       id="shadow_inactive">
      <stop
         style="stop-color:#000000;stop-opacity:1;"
         offset="0"
         id="stop6719-25" />
      <stop
         id="stop6834-1"
         offset="0.25"
         style="stop-color:#000000;stop-opacity:0.63855422;" />
      <stop
         id="stop6832-0"
         offset="0.5"
         style="stop-color:#000000;stop-opacity:0.33734939;" />
      <stop
         style="stop-color:#000000;stop-opacity:0.10843374;"
         offset="0.75"
         id="stop6836-0" />
      <stop
         id="stop6894-7"
         offset="0.875"
         style="stop-color:#000000;stop-opacity:0.03921569;" />
      <stop
         id="stop6721-4"
         offset="1"
         style="stop-color:#000000;stop-opacity:0;" />
    </linearGradient>
    <linearGradient
       inkscape:collect="always"
       xlink:href="#shadow_inactive"
       id="linearGradient6612-5"
       gradientUnits="userSpaceOnUse"
       gradientTransform="translate(200,5)"
       x1="396"
       y1="66"
       x2="396"
       y2="30" />
    <linearGradient
       inkscape:collect="always"
       xlink:href="#shadow_active"
       id="linearGradient1126"
       gradientUnits="userSpaceOnUse"
       gradientTransform="matrix(1.0133333,0,0,1,-3.2650058,140)"
       x1="348.49344"
       y1="99"
       x2="279.41449"
       y2="99" />
    <radialGradient
       inkscape:collect="always"
       xlink:href="#shadow_active"
       id="radialGradient1306"
       gradientUnits="userSpaceOnUse"
       gradientTransform="matrix(9.4919759e-7,-2.9142759,4.0000007,1.1504403e-6,-211.66707,980.01628)"
       cx="296.47726"
       cy="80.416679"
       fx="296.47726"
       fy="80.416679"
       r="17.5" />
    <linearGradient
       inkscape:collect="always"
       xlink:href="#shadow_inactive"
       id="linearGradient1389"
       gradientUnits="userSpaceOnUse"
       gradientTransform="matrix(1.0133333,0,0,1,-3.2650058,140)"
       x1="348.49344"
       y1="99.01548"
       x2="304.08554"
       y2="99.01548" />
    <radialGradient
       inkscape:collect="always"
       xlink:href="#shadow_active"
       id="radialGradient965"
       gradientUnits="userSpaceOnUse"
       gradientTransform="matrix(-4.0000019,3.2964352e-6,1.0208917e-6,-4.799999,303.08329,1053.8707)"
       cx="48.27084"
       cy="178.72313"
       fx="48.27084"
       fy="178.72313"
       r="17.5" />
    <radialGradient
       inkscape:collect="always"
       xlink:href="#shadow_inactive"
       id="radialGradient967"
       gradientUnits="userSpaceOnUse"
       gradientTransform="matrix(-2.5714291,8.7200345e-7,-2.0148289e-7,-1.9428564,594.12508,548.00068)"
       cx="48.270844"
       cy="181.17691"
       fx="48.270844"
       fy="181.17691"
       r="17.5" />
    <radialGradient
       inkscape:collect="always"
       xlink:href="#shadow_inactive"
       id="radialGradient969"
       gradientUnits="userSpaceOnUse"
       gradientTransform="matrix(-3.7607938e-7,-2.0571166,2.5714318,-5.1233137e-7,263.21413,725.83432)"
       cx="296.45123"
       cy="80.416672"
       fx="296.45123"
       fy="80.416672"
       r="17.5" />
    <linearGradient
       inkscape:collect="always"
       xlink:href="#shadow_active"
       id="linearGradient968"
       gradientUnits="userSpaceOnUse"
       gradientTransform="matrix(1.0133333,0,0,1,-3.2650058,140)"
       x1="348.49344"
       y1="99"
       x2="279.41449"
       y2="99" />
    <linearGradient
       inkscape:collect="always"
       xlink:href="#shadow_inactive"
       id="linearGradient1012"
       gradientUnits="userSpaceOnUse"
       gradientTransform="matrix(1.0133333,0,0,1,-3.2650058,140)"
       x1="348.49344"
       y1="99.01548"
       x2="304.08554"
       y2="99.01548" />
  </defs>
  <metadata
     id="metadata3647">
    <rdf:RDF>
      <cc:Work
         rdf:about="">
        <dc:format>image/svg+xml</dc:format>
        <dc:type
           rdf:resource="http://purl.org/dc/dcmitype/StillImage" />
      </cc:Work>
      <cc:Work
         rdf:about="">
        <dc:format>image/svg+xml</dc:format>
        <dc:type
           rdf:resource="http://purl.org/dc/dcmitype/StillImage" />
      </cc:Work>
    </rdf:RDF>
  </metadata>
  <g
     id="layer1"
     inkscape:label="Layer 1"
     inkscape:groupmode="layer"
     transform="translate(0,-90)">
    <g
       id="decoration-inactive-topleft"
       inkscape:label="#decoration-inactive-topleft"
       transform="matrix(1.2499999,0,0,1.2499999,173.74999,-72.32874)">
      <path
         id="rect6520-3-2-6"
         style="opacity:0.5;fill:url(#radialGradient969);fill-opacity:1;stroke:none"
         d="m 365,50 v 66 h 76 V 98 c 0,-6.648 5.352,-12 12,-12 h 17 V 50 Z"
         transform="translate(-140,115.063)" />
      <g
         inkscape:label="#g5343"
         id="6utrh-9">
        <g
           id="decoration-toplefthaerty-5"
           inkscape:label="#g5253"
           transform="translate(0,1)">
          <g
             inkscape:label="#g6458"
             transform="translate(-19,25)"
             id="49093u-9">
            <path
               id="rect5073-4-9-6"
               style="opacity:1;fill:#2d2d2d;fill-opacity:1;stroke:none;stroke-width:1"
               d="m 453,86 c -6.648,0 -12,5.352 -12,12 V 115.93555 116 h 29 V 86 Z"
               transform="translate(-121,89.063)" />
            <path
               id="path955"
               style="opacity:0.05;fill:#ffffff;fill-opacity:1;stroke:none;stroke-width:1"
               d="m 453,80 c -6.648,0 -12,5.352 -12,12 v 1 c 0,-6.648 5.352,-12 12,-12 h 17 v -1 z"
               transform="translate(-121,95.063)" />
          </g>
        </g>
      </g>
      <path
         id="path202"
         style="opacity:0.75;fill:#000000;fill-opacity:1;stroke:none"
         d="m 453,79 c -7.202,0 -13,5.798 -13,13 v 18 h 1 V 92 c 0,-6.648 5.352,-12 12,-12 h 17 v -1 z"
         transform="translate(-140,121.063)" />
    </g>
    <g
       inkscape:label="#decoration-left"
       transform="matrix(-1.2499999,0,0,1.2499999,754.84371,-29.749992)"
       id="decoration-right">
      <path
         sodipodi:nodetypes="ccccc"
         inkscape:connector-curvature="0"
         id="path960"
         d="m 244.875,197 v 86 h 76 v -86 z"
         style="opacity:0.5;fill:url(#linearGradient968);fill-opacity:1;stroke:none;stroke-width:1.00664" />
      <path
         id="path962"
         style="opacity:0.75;fill:#000000;fill-opacity:1;stroke:none"
         d="m 284,116 v 86 h 1 v -86 z"
         transform="matrix(-1,0,0,1,604.875,81)" />
      <path
         transform="translate(-255.125,76)"
         sodipodi:nodetypes="ccccc"
         inkscape:connector-curvature="0"
         id="path964"
         d="m 576,121 v 86 h 29 v -86 z"
         style="opacity:1;fill:#363636;fill-opacity:1;stroke:none" />
    </g>
    <g
       transform="translate(-1453.4451,-465.21909)"
       inkscape:label="layer1"
       style="display:none"
       id="g4418" />
    <g
       transform="matrix(1.2499999,0,0,1.2499999,-1818.0563,-615.02383)"
       inkscape:label="glow"
       style="display:inline"
       id="layer2" />
    <g
       inkscape:label="layer1"
       style="display:none"
       id="g2424"
       transform="translate(975.61592,-1945.0985)" />
    <g
       inkscape:label="glow"
       style="display:inline"
       id="g2426"
       transform="matrix(1.2499999,0,0,1.2499999,1218.2698,-2464.873)" />
    <g
       inkscape:label="Layer 1"
       id="g3429"
       transform="matrix(1.2499999,0,0,1.2499999,1275.7421,-1253.7947)" />
    <g
       inkscape:label="Layer 1"
       id="g19758"
       transform="matrix(1.2499999,0,0,1.2499999,3508.6051,-774.47212)" />
    <g
       inkscape:label="Layer 1"
       id="g3935"
       transform="matrix(1.2499999,0,0,1.2499999,4889.6365,-1872.3088)" />
    <g
       inkscape:label="Layer 1"
       id="g8459"
       transform="matrix(1.2499999,0,0,1.2499999,1892.2995,-1891.4928)" />
    <g
       inkscape:label="Layer 1"
       id="g28391"
       transform="matrix(1.2499999,0,0,1.2499999,203.77777,-230.7283)" />
    <g
       inkscape:label="Layer 1"
       id="g28393"
       transform="matrix(1.2499999,0,0,1.2499999,1584.8092,-1328.5649)" />
    <g
       inkscape:label="Layer 1"
       id="g28395"
       transform="matrix(1.2499999,0,0,1.2499999,-1412.5278,-1347.7489)" />
    <g
       inkscape:label="Layer 1"
       id="g6598"
       transform="matrix(1.2499999,0,0,1.2499999,2886.9026,-240.72829)" />
    <g
       inkscape:label="Layer 1"
       id="g6640"
       transform="matrix(1.2499999,0,0,1.2499999,4267.934,-1338.5649)" />
    <g
       inkscape:label="Layer 1"
       id="g6716"
       transform="matrix(1.2499999,0,0,1.2499999,1270.5971,-1357.7489)" />
    <g
       id="g6850"
       transform="matrix(1.2499999,0,0,-1.2499999,-193.05634,335.46793)"
       style="opacity:0.459459" />
    <g
       id="g4240"
       style="display:none"
       inkscape:label="layer1"
       transform="translate(-1919.565,-153.36219)" />
    <g
       id="g4242"
       style="display:inline"
       inkscape:label="glow"
       transform="matrix(1.2499999,0,0,1.2499999,-2400.7061,-225.20272)" />
    <g
       transform="translate(509.49601,-1633.2416)"
       id="g4244"
       style="display:none"
       inkscape:label="layer1" />
    <g
       transform="matrix(1.2499999,0,0,1.2499999,635.61998,-2075.0519)"
       id="g4246"
       style="display:inline"
       inkscape:label="glow" />
    <g
       transform="matrix(1.2499999,0,0,1.2499999,693.09223,-863.97354)"
       id="g4248"
       inkscape:label="Layer 1" />
    <g
       transform="matrix(1.2499999,0,0,1.2499999,2925.9552,-384.65101)"
       id="g4250"
       inkscape:label="Layer 1" />
    <g
       transform="matrix(1.2499999,0,0,1.2499999,4306.9867,-1482.4877)"
       id="g4252"
       inkscape:label="Layer 1" />
    <g
       transform="matrix(1.2499999,0,0,1.2499999,1309.6497,-1501.6717)"
       id="g4254"
       inkscape:label="Layer 1" />
    <g
       transform="matrix(1.2499999,0,0,1.2499999,-378.87208,159.09281)"
       id="g4256"
       inkscape:label="Layer 1" />
    <g
       transform="matrix(1.2499999,0,0,1.2499999,1002.1593,-938.74379)"
       id="g4258"
       inkscape:label="Layer 1" />
    <g
       transform="matrix(1.2499999,0,0,1.2499999,-1995.1777,-957.92779)"
       id="g4260"
       inkscape:label="Layer 1" />
    <g
       transform="matrix(1.2499999,0,0,1.2499999,2304.2528,149.09281)"
       id="g4262"
       inkscape:label="Layer 1" />
    <g
       transform="matrix(1.2499999,0,0,1.2499999,3685.2842,-948.74379)"
       id="g4264"
       inkscape:label="Layer 1" />
    <g
       transform="matrix(1.2499999,0,0,1.2499999,687.94723,-967.92778)"
       id="g4266"
       inkscape:label="Layer 1" />
    <g
       style="opacity:0.459459"
       transform="matrix(1.2499999,0,0,-1.2499999,-775.70619,725.28903)"
       id="g4268" />
    <g
       id="decoration-bottom"
       transform="matrix(1.2499999,0,0,1.2499999,-269.99999,-22.249993)"
       inkscape:label="#decoration-bottom">
      <path
         style="opacity:0.5;fill:url(#linearGradient5688);fill-opacity:1;stroke:none;stroke-width:1.00587"
         d="m 325,289 v 86 h 145 v -86 z"
         id="path6217-8"
         inkscape:connector-curvature="0"
         sodipodi:nodetypes="ccccc" />
      <path
         id="path6214-7"
         d="M 470,289 H 325 v 1 h 145 z"
         style="opacity:0.75;fill:#000000;fill-opacity:1;stroke:none;stroke-width:0.413845"
         inkscape:connector-curvature="0" />
      <path
         id="path6211-7"
         d="M 470,277 H 325 v 12 h 145 z"
         style="opacity:0.75;fill:#242424;fill-opacity:1;stroke:none;stroke-width:1.41421"
         inkscape:connector-curvature="0" />
    </g>
    <path
       style="opacity:1;fill:#363636;fill-opacity:1;stroke:none;stroke-width:1.25"
       d="m 136.24999,216.5 v 107.49999 h 181.25 V 216.5 Z"
       id="decoration-center"
       inkscape:connector-curvature="0"
       inkscape:label="#decoration-center" />
    <g
       id="decoration-top"
       transform="matrix(1.2499999,0,0,1.2499999,-269.99999,-40.999929)"
       inkscape:label="#decoration-top">
      <path
         id="path6055-5"
         style="opacity:0.5;fill:url(#linearGradient6612);fill-opacity:1;stroke:none;stroke-width:1.01418"
         d="M 110,50 V 86 H 255 V 50 Z"
         transform="translate(215,89.99995)" />
      <path
         id="path6098-4"
         style="opacity:0.75;fill:#000000;fill-opacity:1;stroke:none"
         d="m 110,85 v 1 h 145 v -1 z"
         transform="translate(215,89.99995)" />
      <path
         style="opacity:1;fill:#363636;fill-opacity:1;stroke:none;stroke-width:1"
         d="m 325,175.99994 v 30.00002 h 145 v -30.00002 z"
         id="path6092-3"
         inkscape:connector-curvature="0"
         sodipodi:nodetypes="ccccc" />
      <path
         sodipodi:nodetypes="ccccc"
         inkscape:connector-curvature="0"
         id="path966"
         d="m 325,175.99994 v 1.00001 h 145 v -1.00001 z"
         style="opacity:0.1;fill:#ffffff;fill-opacity:1;stroke:none;stroke-width:0.182575" />
    </g>
    <g
       id="decoration-left"
       transform="matrix(1.2499999,0,0,1.2499999,-301.09374,-29.749992)"
       inkscape:label="#decoration-left">
      <path
         style="opacity:0.5;fill:url(#linearGradient1126);fill-opacity:1;stroke:none;stroke-width:1.00664"
         d="m 244.875,197 v 86 h 76 v -86 z"
         id="path6345-1"
         inkscape:connector-curvature="0"
         sodipodi:nodetypes="ccccc" />
      <path
         id="path6342-6"
         style="opacity:0.75;fill:#000000;fill-opacity:1;stroke:none"
         d="m 80,116 v 86 h 1 v -86 z"
         transform="translate(239.875,81)" />
      <path
         style="opacity:1;fill:#363636;fill-opacity:1;stroke:none"
         d="m 576,121 v 86 h 29 v -86 z"
         id="path6339-9"
         inkscape:connector-curvature="0"
         sodipodi:nodetypes="ccccc"
         transform="translate(-255.125,76)" />
    </g>
    <g
       id="decoration-inactive-bottom"
       transform="matrix(1.2499999,0,0,1.2499999,179.99999,-22.152518)"
       inkscape:label="#decoration-inactive-bottom">
      <path
         style="opacity:0.5;fill:url(#linearGradient5688-2);fill-opacity:1;stroke:none;stroke-width:1.00587"
         d="m 325,288.92202 v 86 h 145 v -86 z"
         id="path6217-8-2"
         inkscape:connector-curvature="0"
         sodipodi:nodetypes="ccccc" />
      <path
         id="path6214-7-4"
         d="M 470,288.92202 H 325 v 1 h 145 z"
         style="opacity:0.75;fill:#000000;fill-opacity:1;stroke:none;stroke-width:0.392425"
         inkscape:connector-curvature="0" />
      <path
         id="path6211-7-5"
         d="M 470,276.92202 H 325 v 12 h 145 z"
         style="opacity:0.75;fill:#1a1a1a;fill-opacity:1;stroke:none;stroke-width:1.41421"
         inkscape:connector-curvature="0" />
    </g>
    <path
       style="opacity:1;fill:#2d2d2d;fill-opacity:1;stroke:none;stroke-width:1.25"
       d="M 586.24997,216.5 V 323.99999 H 767.49996 V 216.5 Z"
       id="decoration-inactive-center"
       inkscape:connector-curvature="0"
       inkscape:label="#decoration-inactive-center" />
    <g
       id="decoration-inactive-top"
       transform="matrix(1.2499999,0,0,1.2499999,179.99999,-40.999992)"
       inkscape:label="#decoration-inactive-top">
      <path
         style="opacity:0.5;fill:url(#linearGradient6612-5);fill-opacity:1;stroke:none"
         d="M 525,5 V 41 H 670 V 5 Z"
         transform="translate(-200,135)"
         id="path6055-5-5"
         inkscape:connector-curvature="0"
         sodipodi:nodetypes="ccccc" />
      <path
         transform="translate(-145,90)"
         d="m 470,85 v 1 h 145 v -1 z"
         style="opacity:0.75;fill:#000000;fill-opacity:1;stroke:none"
         id="path6098-4-8" />
      <path
         style="opacity:1;fill:#2d2d2d;fill-opacity:1;stroke:none;stroke-width:1"
         d="m 325,176 v 30 h 145 v -30 z"
         id="path6092-3-3"
         inkscape:connector-curvature="0"
         sodipodi:nodetypes="ccccc" />
      <path
         style="opacity:0.05;fill:#ffffff;fill-opacity:1;stroke:none;stroke-width:0.182574"
         d="m 325,176 v 1 h 145 v -1 z"
         id="path996"
         inkscape:connector-curvature="0"
         sodipodi:nodetypes="ccccc" />
    </g>
    <g
       id="decoration-inactive-left"
       transform="matrix(1.2499999,0,0,1.2499999,148.90624,-29.769342)"
       inkscape:label="#decoration-inactive-left">
      <path
         style="opacity:0.5;fill:url(#linearGradient1389);fill-opacity:1;stroke:none;stroke-width:1.00664"
         d="m 244.875,197.01548 v 86 l 76,-0.0155 v -85.98452 z"
         id="path6345-1-1"
         inkscape:connector-curvature="0"
         sodipodi:nodetypes="ccccc" />
      <path
         id="path6342-6-6"
         d="m 319.875,197.01548 v 86 h 1 v -86 z"
         style="opacity:0.75;fill:#000000;fill-opacity:1;stroke:none;stroke-width:0.447214"
         inkscape:connector-curvature="0" />
      <path
         inkscape:connector-curvature="0"
         style="opacity:1;fill:#2d2d2d;fill-opacity:1;stroke:none"
         d="m 320.875,197.01548 v 86 h 29 v -86 z"
         id="path6339-9-9"
         sodipodi:nodetypes="ccccc" />
    </g>
    <g
       transform="matrix(1.2499999,0,0,1.2499999,-482.49998,-38.50001)"
       id="decoration-bottomleft"
       inkscape:label="#decoration-bottomleft">
      <path
         id="rect7023-1"
         style="opacity:0.75;fill:#242424;fill-opacity:1;stroke:none"
         d="m 81,196 c 0,6.648 5.352,12 12,12 h 17 v -12 z"
         transform="translate(385,94.000015)" />
      <g
         transform="matrix(1,0,0,0.99932111,165,-10.666582)"
         inkscape:label="#g5246"
         id="hrh-6">
        <path
           id="rect5099-9-5"
           style="opacity:0.5;fill:url(#radialGradient965);fill-opacity:1;stroke:none"
           d="m 5,196 v 98 H 110 V 208 H 93 c -6.648,0 -12,-5.352 -12,-12 z"
           transform="matrix(1,0,0,1.0006794,220,104.7377)" />
        <g
           id="decoration-bottomleft57547-54-5"
           transform="translate(-20,24)"
           inkscape:label="#g6297">
          <g
             id="g6659-3-3-0" />
        </g>
        <path
           id="path168"
           style="opacity:0.75;fill:#000000;fill-opacity:1;stroke:none"
           d="m 80,196 c 0,7.202 5.798,13 13,13 h 17 v -1 H 93 c -6.648,0 -12,-5.352 -12,-12 z"
           transform="matrix(1,0,0,1.0006794,220,104.7377)" />
      </g>
    </g>
    <g
       id="decoration-inactive-bottomleft"
       transform="matrix(1.2499999,0,0,1.2499999,-1.2499997,-33.499992)">
      <path
         id="path4207"
         style="opacity:0.75;fill:#1a1a1a;fill-opacity:1;stroke:none;stroke-width:1.41421"
         d="m 441,196 c 0,6.648 5.352,12 12,12 h 14 3 v -12 z"
         transform="translate(0,90)"
         sodipodi:nodetypes="cscccc" />
      <g
         transform="matrix(1,0,0,0.99932111,140,-14.604092)"
         inkscape:label="#g5246"
         id="hrh-3">
        <path
           id="rect5099-9-6"
           style="opacity:0.5;fill:url(#radialGradient967);fill-opacity:1;stroke:none"
           d="m 365,196 v 98 h 105 v -86 h -3 -14 c -6.648,0 -12,-5.352 -12,-12 z"
           transform="matrix(1,0,0,1.0006794,-140,104.67515)"
           sodipodi:nodetypes="cccccscc" />
        <g
           id="decoration-bottomleft57547-54-2"
           transform="translate(-20,24)"
           inkscape:label="#g6297">
          <g
             id="g6659-3-3-4" />
        </g>
        <path
           id="path188"
           style="opacity:0.75;fill:#000000;fill-opacity:1;stroke:none"
           d="m 440,196 c 0,7.202 5.798,13 13,13 h 14 l 3,-1e-5 V 208 h -3 -14 c -6.648,0 -12,-5.352 -12,-12 z"
           transform="matrix(1,0,0,1.0006794,-140,104.67515)"
           sodipodi:nodetypes="csccccscc" />
      </g>
    </g>
    <g
       transform="matrix(-1.2499999,0,0,1.2499999,667.49997,-72.328115)"
       inkscape:label="#decoration-topleft"
       id="decoration-topleft">
      <path
         id="path1019"
         style="opacity:0.5;fill:url(#radialGradient1306);fill-opacity:1;stroke:none"
         d="m 5,50 v 66 H 81 V 98 c 0,-6.648 5.352,-12 12,-12 h 17 V 50 Z"
         transform="matrix(-1,0,0,1,535,115.0625)" />
      <g
         transform="translate(250)"
         id="g1027"
         inkscape:label="#g6067">
        <g
           inkscape:label="#g6458-7"
           id="g1025"
           transform="matrix(-1,0,0,1,524,26)">
          <path
             id="path1023"
             style="opacity:1;fill:#363636;fill-opacity:1;stroke:none;stroke-width:1"
             d="m 93,86 c -6.648,0 -12,5.352 -12,12 v 18 h 29 V 86 Z"
             transform="translate(239,89.0625)" />
          <path
             transform="translate(239,95.0625)"
             d="m 93,80 c -6.648,0 -12,5.352 -12,12 v 0.599609 C 81,86.173209 86.352,81 93,81 h 17 v -1 z"
             style="opacity:0.1;fill:#ffffff;fill-opacity:1;stroke:none;stroke-width:1"
             id="path961" />
        </g>
      </g>
      <path
         id="path187"
         style="opacity:0.75;fill:#000000;fill-opacity:1;stroke:none"
         d="m 93,85 c -7.202,0 -13,5.798 -13,13 v 18 h 1 V 98 c 0,-6.648 5.352,-12 12,-12 h 17 v -1 z"
         transform="matrix(-1,0,0,1,535,115.0625)" />
    </g>
    <g
       inkscape:label="#decoration-inactive-left"
       transform="matrix(-1.2499999,0,0,1.2499999,1204.8437,-29.769342)"
       id="decoration-inactive-right">
      <path
         sodipodi:nodetypes="ccccc"
         inkscape:connector-curvature="0"
         id="path1004"
         d="m 244.875,197.01548 v 86 l 76,-0.0155 v -85.98452 z"
         style="opacity:0.5;fill:url(#linearGradient1012);fill-opacity:1;stroke:none;stroke-width:1.00664" />
      <path
         inkscape:connector-curvature="0"
         style="opacity:0.75;fill:#000000;fill-opacity:1;stroke:none;stroke-width:0.447214"
         d="m 319.875,197.01548 v 86 h 1 v -86 z"
         id="path1006" />
      <path
         id="path1008"
         d="m 320.875,197.01548 v 86 h 29 v -86 z"
         style="opacity:1;fill:#2d2d2d;fill-opacity:1;stroke:none"
         inkscape:connector-curvature="0"
         sodipodi:nodetypes="ccccc" />
    </g>
    <use
       x="0"
       y="0"
       xlink:href="#decoration-topleft"
       id="decoration-topright"
       transform="matrix(-1,0,0,1,453.74998,0)"
       width="100%"
       height="100%" />
    <use
       x="0"
       y="0"
       xlink:href="#decoration-inactive-topleft"
       id="decoration-inactive-topright"
       transform="matrix(-1,0,0,1,1353.7499,0)"
       width="100%"
       height="100%" />
    <use
       x="0"
       y="0"
       xlink:href="#decoration-bottomleft"
       id="decoration-bottomright"
       transform="matrix(-1,0,0,1,453.74998,0)"
       width="100%"
       height="100%" />
    <use
       x="0"
       y="0"
       xlink:href="#decoration-inactive-bottomleft"
       id="decoration-inactive-bottomright"
       transform="matrix(-1,0,0,1,1353.7499,0)"
       width="100%"
       height="100%" />
  </g>
</svg>
